<svg width="512" height="512" viewBox="0 0 512 512" fill="none" xmlns="http://www.w3.org/2000/svg" xmlns:xlink="http://www.w3.org/1999/xlink" class=""><rect id="_r_9_" width="512" height="512" x="0" y="0" rx="128" fill="url(#_r_a_)" stroke="#FFFFFF" stroke-width="0" stroke-opacity="100%" paint-order="stroke"/><clipPath id="clip"><use xlink:href="#_r_9_"/></clipPath><defs><radialGradient id="_r_a_" cx="50%" cy="50%" r="100%" fx="50%" fy="50%" gradientUnits="objectBoundingBox"><stop stop-color="#68AEFF"/><stop offset="1" stop-color="#003EB7"/></radialGradient><radialGradient id="_r_b_" cx="0" cy="0" r="1" gradientUnits="userSpaceOnUse" gradientTransform="translate(256) rotate(90) scale(512)"><stop stop-color="white"/><stop offset="1" stop-color="white" stop-opacity="0"/></radialGradient></defs><svg xmlns="http://www.w3.org/2000/svg" fill="none" viewBox="0 0 16 16" width="352" height="352" x="80" y="80" style="color: rgb(255, 255, 255);" alignment-baseline="middle"><path stroke="currentColor" stroke-linecap="round" stroke-linejoin="round" stroke-width="1.5" d="M8 4.75v-3m0 3H3.75a2 2 0 0 0-2 2v5.5a2 2 0 0 0 2 2h8.5a2 2 0 0 0 2-2v-5.5a2 2 0 0 0-2-2H8Zm-2.25 6.5h4.5m-5.5-3h.5m2.5 0h.5m2.5 0h.5"/></svg></svg>